<?xml version="1.0" standalone="no"?><!DOCTYPE svg PUBLIC "-//W3C//DTD SVG 1.1//EN" "http://www.w3.org/Graphics/SVG/1.1/DTD/svg11.dtd"><svg t="1556354195148" class="icon" style="" viewBox="0 0 1024 1024" version="1.1" xmlns="http://www.w3.org/2000/svg" p-id="2766" xmlns:xlink="http://www.w3.org/1999/xlink" width="200" height="200"><defs><style type="text/css"></style></defs><path d="M516.032 66.496a447.488 447.488 0 0 0-446.976 446.976c0 246.528 200.512 446.976 446.976 446.976s446.976-200.512 446.976-446.976a447.488 447.488 0 0 0-446.976-446.976z m0 830.016c-211.2 0-382.976-171.84-382.976-382.976S304.896 130.56 516.032 130.56s382.976 171.84 382.976 382.976-171.84 382.976-382.976 382.976z" p-id="2767"></path><path d="M700.032 481.472H548.032V329.472a32 32 0 0 0-64 0v152H332.032a32 32 0 0 0 0 64h152v152a32 32 0 0 0 64 0V545.472h152a32 32 0 0 0 0-64z" p-id="2768"></path></svg>