<?xml version="1.0" standalone="no"?><!DOCTYPE svg PUBLIC "-//W3C//DTD SVG 1.1//EN" "http://www.w3.org/Graphics/SVG/1.1/DTD/svg11.dtd"><svg t="1555648146868" class="icon" style="" viewBox="0 0 1025 1024" version="1.1" xmlns="http://www.w3.org/2000/svg" p-id="13177" xmlns:xlink="http://www.w3.org/1999/xlink" width="200.1953125" height="200"><defs><style type="text/css"></style></defs><path d="M2.327273 1010.036364c-2.327273-11.636364-2.327273-41.890909 0-74.472728 6.981818-58.181818 30.254545-100.072727 65.163636-125.672727 25.6-18.618182 58.181818-27.927273 86.109091-34.909091 13.963636-2.327273 27.927273-6.981818 39.563636-9.309091 69.818182-16.290909 141.963636-32.581818 195.490909-102.4 4.654545-4.654545 32.581818-46.545455-41.890909-137.309091-32.581818-39.563636-53.527273-93.090909-62.836363-160.581818-9.309091-69.818182-2.327273-134.981818 4.654545-176.872727 9.309091-48.872727 37.236364-93.090909 79.127273-125.672727 41.890909-32.581818 93.090909-48.872727 144.290909-48.872728s102.4 16.290909 144.290909 48.872728c41.890909 32.581818 69.818182 76.8 79.127273 128 6.981818 41.890909 13.963636 107.054545 4.654545 176.872727-9.309091 65.163636-30.254545 118.690909-62.836363 160.581818-74.472727 90.763636-44.218182 132.654545-41.890909 137.309091 53.527273 72.145455 125.672727 88.436364 195.490909 102.4 13.963636 2.327273 27.927273 6.981818 41.890909 9.309091 25.6 6.981818 58.181818 16.290909 83.781818 34.909091 76.8 53.527273 69.818182 169.890909 67.490909 197.818182H2.327273z" p-id="13178" fill="#000000"></path></svg>